<svg id="visual" viewBox="0 0 900 600" width="900" height="600" xmlns="http://www.w3.org/2000/svg" xmlns:xlink="http://www.w3.org/1999/xlink" version="1.1"><rect x="0" y="0" width="900" height="600" fill="#18181b"></rect><path d="M0 454L15 456.5C30 459 60 464 90 463.3C120 462.7 150 456.3 180 455C210 453.7 240 457.3 270 463.3C300 469.3 330 477.7 360 479.5C390 481.3 420 476.7 450 475.3C480 474 510 476 540 476.2C570 476.3 600 474.7 630 470.5C660 466.3 690 459.7 720 455.7C750 451.7 780 450.3 810 453.7C840 457 870 465 885 469L900 473L900 601L885 601C870 601 840 601 810 601C780 601 750 601 720 601C690 601 660 601 630 601C600 601 570 601 540 601C510 601 480 601 450 601C420 601 390 601 360 601C330 601 300 601 270 601C240 601 210 601 180 601C150 601 120 601 90 601C60 601 30 601 15 601L0 601Z" fill="#18181b"></path><path d="M0 503L15 501.2C30 499.3 60 495.7 90 490.3C120 485 150 478 180 477.5C210 477 240 483 270 486C300 489 330 489 360 485.7C390 482.3 420 475.7 450 473.5C480 471.3 510 473.7 540 477C570 480.3 600 484.7 630 483.5C660 482.3 690 475.7 720 477.5C750 479.3 780 489.7 810 490.7C840 491.7 870 483.3 885 479.2L900 475L900 601L885 601C870 601 840 601 810 601C780 601 750 601 720 601C690 601 660 601 630 601C600 601 570 601 540 601C510 601 480 601 450 601C420 601 390 601 360 601C330 601 300 601 270 601C240 601 210 601 180 601C150 601 120 601 90 601C60 601 30 601 15 601L0 601Z" fill="#1a1a1d"></path><path d="M0 494L15 496.3C30 498.7 60 503.3 90 507.7C120 512 150 516 180 517.8C210 519.7 240 519.3 270 514.3C300 509.3 330 499.7 360 495C390 490.3 420 490.7 450 491C480 491.3 510 491.7 540 491.3C570 491 600 490 630 494.3C660 498.7 690 508.3 720 508.7C750 509 780 500 810 495.2C840 490.3 870 489.7 885 489.3L900 489L900 601L885 601C870 601 840 601 810 601C780 601 750 601 720 601C690 601 660 601 630 601C600 601 570 601 540 601C510 601 480 601 450 601C420 601 390 601 360 601C330 601 300 601 270 601C240 601 210 601 180 601C150 601 120 601 90 601C60 601 30 601 15 601L0 601Z" fill="#1d1d20"></path><path d="M0 535L15 535.2C30 535.3 60 535.7 90 535.5C120 535.3 150 534.7 180 530.2C210 525.7 240 517.3 270 513.5C300 509.7 330 510.3 360 510.7C390 511 420 511 450 512.8C480 514.7 510 518.3 540 521.5C570 524.7 600 527.3 630 525.2C660 523 690 516 720 513.7C750 511.3 780 513.7 810 516.5C840 519.3 870 522.7 885 524.3L900 526L900 601L885 601C870 601 840 601 810 601C780 601 750 601 720 601C690 601 660 601 630 601C600 601 570 601 540 601C510 601 480 601 450 601C420 601 390 601 360 601C330 601 300 601 270 601C240 601 210 601 180 601C150 601 120 601 90 601C60 601 30 601 15 601L0 601Z" fill="#1f1f22"></path><path d="M0 539L15 540.2C30 541.3 60 543.7 90 543C120 542.3 150 538.7 180 538.5C210 538.3 240 541.7 270 544.3C300 547 330 549 360 547.5C390 546 420 541 450 539.5C480 538 510 540 540 539C570 538 600 534 630 535.3C660 536.7 690 543.3 720 546.8C750 550.3 780 550.7 810 549.5C840 548.3 870 545.7 885 544.3L900 543L900 601L885 601C870 601 840 601 810 601C780 601 750 601 720 601C690 601 660 601 630 601C600 601 570 601 540 601C510 601 480 601 450 601C420 601 390 601 360 601C330 601 300 601 270 601C240 601 210 601 180 601C150 601 120 601 90 601C60 601 30 601 15 601L0 601Z" fill="#222225"></path><path d="M0 565L15 563C30 561 60 557 90 555.5C120 554 150 555 180 555.2C210 555.3 240 554.7 270 554.7C300 554.7 330 555.3 360 557.8C390 560.3 420 564.7 450 564.2C480 563.7 510 558.3 540 556C570 553.7 600 554.3 630 555C660 555.7 690 556.3 720 558.3C750 560.3 780 563.7 810 563.8C840 564 870 561 885 559.5L900 558L900 601L885 601C870 601 840 601 810 601C780 601 750 601 720 601C690 601 660 601 630 601C600 601 570 601 540 601C510 601 480 601 450 601C420 601 390 601 360 601C330 601 300 601 270 601C240 601 210 601 180 601C150 601 120 601 90 601C60 601 30 601 15 601L0 601Z" fill="#242427"></path><path d="M0 582L15 580.5C30 579 60 576 90 575.7C120 575.3 150 577.7 180 577C210 576.3 240 572.7 270 572.8C300 573 330 577 360 578.3C390 579.7 420 578.3 450 576.2C480 574 510 571 540 570.2C570 569.3 600 570.7 630 571.7C660 572.7 690 573.3 720 575.3C750 577.3 780 580.7 810 580.8C840 581 870 578 885 576.5L900 575L900 601L885 601C870 601 840 601 810 601C780 601 750 601 720 601C690 601 660 601 630 601C600 601 570 601 540 601C510 601 480 601 450 601C420 601 390 601 360 601C330 601 300 601 270 601C240 601 210 601 180 601C150 601 120 601 90 601C60 601 30 601 15 601L0 601Z" fill="#27272a"></path></svg>